<svg xmlns="http://www.w3.org/2000/svg" width="1400" height="900" viewBox="0 0 1400 900" role="img" aria-labelledby="title desc">
  <title id="title">Tratamientos faciales</title>
  <desc id="desc">Imagen editorial abstracta de tratamientos faciales Bravo</desc>
  <defs>
    <linearGradient id="bg" x1="0" y1="0" x2="1" y2="1">
      <stop offset="0" stop-color="#faf7f2"/>
      <stop offset=".62" stop-color="#f6ece4"/>
      <stop offset="1" stop-color="#2b2118"/>
    </linearGradient>
    <radialGradient id="glow" cx="65%" cy="34%" r="54%">
      <stop offset="0" stop-color="#c9a86a" stop-opacity=".38"/>
      <stop offset="1" stop-color="#c9a86a" stop-opacity="0"/>
    </radialGradient>
    <filter id="shadow" x="-20%" y="-20%" width="140%" height="140%">
      <feDropShadow dx="0" dy="24" stdDeviation="24" flood-color="#2b2118" flood-opacity=".18"/>
    </filter>
  </defs>
  <rect width="1400" height="900" fill="url(#bg)"/>
  <rect width="1400" height="900" fill="url(#glow)"/>
  <rect x="70" y="70" width="1260" height="760" rx="52" fill="rgba(255,255,255,.80)" stroke="#c9a86a" stroke-opacity=".52"/>
  <g fill="none" stroke="#c9a86a" stroke-opacity=".22" stroke-width="2">
    <path d="M210 620c185-330 760-330 980 0"/>
    <path d="M260 665c165-270 680-270 880 0"/>
  </g>
  <g filter="url(#shadow)" fill="none" stroke-linecap="round">
    <ellipse cx="790" cy="398" rx="150" ry="198" stroke="#c9a86a" stroke-width="14"/>
    <path d="M712 368c36 18 70 18 105 0" stroke="#c9a86a" stroke-width="11"/>
    <path d="M832 368c36 18 70 18 105 0" stroke="#c9a86a" stroke-width="11"/>
    <path d="M716 615c65 55 155 55 225 0" stroke="#c9a86a" stroke-width="13"/>
  </g>
  <g fill="#5f6f52" fill-opacity=".38">
    <circle cx="455" cy="250" r="16"/>
    <circle cx="528" cy="300" r="13"/>
    <circle cx="602" cy="252" r="15"/>
    <circle cx="1002" cy="276" r="14"/>
    <circle cx="1080" cy="324" r="12"/>
    <circle cx="1126" cy="252" r="15"/>
  </g>
  <rect x="115" y="135" width="250" height="62" rx="31" fill="#2b2118"/>
  <text x="240" y="174" text-anchor="middle" fill="#faf7f2" font-family="Arial, sans-serif" font-weight="700" font-size="22" letter-spacing="7">BRAVO</text>
  <text x="120" y="660" fill="#2b2118" font-family="Georgia, serif" font-weight="700" font-size="62">Tratamientos faciales</text>
  <text x="124" y="718" fill="#2b2118" fill-opacity=".76" font-family="Arial, sans-serif" font-size="27">Cuidado de piel, armonizacion y renovacion facial</text>
</svg>
