<svg xmlns="http://www.w3.org/2000/svg" width="1400" height="900" viewBox="0 0 1400 900" role="img" aria-labelledby="title desc">
  <title id="title">Cirugias esteticas</title>
  <desc id="desc">Imagen editorial abstracta de tratamientos quirurgicos esteticos Bravo</desc>
  <defs>
    <linearGradient id="bg" x1="0" y1="0" x2="1" y2="1">
      <stop offset="0" stop-color="#faf7f2"/>
      <stop offset=".55" stop-color="#eadfd2"/>
      <stop offset="1" stop-color="#2b2118"/>
    </linearGradient>
    <radialGradient id="glow" cx="70%" cy="35%" r="55%">
      <stop offset="0" stop-color="#c9a86a" stop-opacity=".34"/>
      <stop offset="1" stop-color="#c9a86a" stop-opacity="0"/>
    </radialGradient>
    <filter id="shadow" x="-20%" y="-20%" width="140%" height="140%">
      <feDropShadow dx="0" dy="24" stdDeviation="24" flood-color="#2b2118" flood-opacity=".22"/>
    </filter>
  </defs>
  <rect width="1400" height="900" fill="url(#bg)"/>
  <rect width="1400" height="900" fill="url(#glow)"/>
  <rect x="70" y="70" width="1260" height="760" rx="52" fill="rgba(255,255,255,.78)" stroke="#c9a86a" stroke-opacity=".55"/>
  <g fill="none" stroke="#c9a86a" stroke-opacity=".22" stroke-width="2">
    <path d="M180 620c210-360 800-360 1040 0"/>
    <path d="M220 650c200-310 740-310 960 0"/>
    <path d="M260 680c180-260 680-260 880 0"/>
  </g>
  <g filter="url(#shadow)" fill="none" stroke-linecap="round">
    <circle cx="790" cy="410" r="210" stroke="#c9a86a" stroke-width="14"/>
    <path d="M735 235c-66 110-45 260-120 385" stroke="#c9a86a" stroke-width="15"/>
    <path d="M865 235c-66 118-36 260 70 385" stroke="#c9a86a" stroke-width="15"/>
    <path d="M922 365l112-54M922 365l106 48" stroke="#5f6f52" stroke-width="7"/>
  </g>
  <rect x="115" y="135" width="250" height="62" rx="31" fill="#2b2118"/>
  <text x="240" y="174" text-anchor="middle" fill="#faf7f2" font-family="Arial, sans-serif" font-weight="700" font-size="22" letter-spacing="7">BRAVO</text>
  <text x="120" y="660" fill="#2b2118" font-family="Georgia, serif" font-weight="700" font-size="62">Cirugias esteticas</text>
  <text x="124" y="718" fill="#2b2118" fill-opacity=".76" font-family="Arial, sans-serif" font-size="27">Evaluacion, orientacion y procedimientos especializados</text>
</svg>
