<svg xmlns="http://www.w3.org/2000/svg" width="1400" height="900" viewBox="0 0 1400 900" role="img" aria-labelledby="title desc">
  <title id="title">Tratamientos corporales</title>
  <desc id="desc">Imagen editorial abstracta de tratamientos corporales Bravo</desc>
  <defs>
    <linearGradient id="bg" x1="0" y1="0" x2="1" y2="1">
      <stop offset="0" stop-color="#faf7f2"/>
      <stop offset=".56" stop-color="#eadfd2"/>
      <stop offset="1" stop-color="#2b2118"/>
    </linearGradient>
    <radialGradient id="glow" cx="66%" cy="35%" r="58%">
      <stop offset="0" stop-color="#c9a86a" stop-opacity=".35"/>
      <stop offset="1" stop-color="#c9a86a" stop-opacity="0"/>
    </radialGradient>
    <filter id="shadow" x="-20%" y="-20%" width="140%" height="140%">
      <feDropShadow dx="0" dy="24" stdDeviation="24" flood-color="#2b2118" flood-opacity=".20"/>
    </filter>
  </defs>
  <rect width="1400" height="900" fill="url(#bg)"/>
  <rect width="1400" height="900" fill="url(#glow)"/>
  <rect x="70" y="70" width="1260" height="760" rx="52" fill="rgba(255,255,255,.78)" stroke="#c9a86a" stroke-opacity=".55"/>
  <g fill="none" stroke="#c9a86a" stroke-opacity=".22" stroke-width="2">
    <path d="M175 620c210-340 810-340 1048 0"/>
    <path d="M250 665c180-265 690-265 905 0"/>
  </g>
  <g filter="url(#shadow)" fill="none" stroke-linecap="round">
    <path d="M700 220c-90 145-90 315 20 455" stroke="#c9a86a" stroke-width="15"/>
    <path d="M860 220c90 145 90 315-20 455" stroke="#c9a86a" stroke-width="15"/>
    <path d="M585 480c118 62 275 68 390 0" stroke="#c9a86a" stroke-width="15"/>
    <path d="M560 520c110 70 330 70 450 0" stroke="#5f6f52" stroke-width="9"/>
  </g>
  <rect x="115" y="135" width="250" height="62" rx="31" fill="#2b2118"/>
  <text x="240" y="174" text-anchor="middle" fill="#faf7f2" font-family="Arial, sans-serif" font-weight="700" font-size="22" letter-spacing="7">BRAVO</text>
  <text x="120" y="660" fill="#2b2118" font-family="Georgia, serif" font-weight="700" font-size="62">Tratamientos corporales</text>
  <text x="124" y="718" fill="#2b2118" fill-opacity=".76" font-family="Arial, sans-serif" font-size="27">Bienestar estetico, contorno y soporte corporal</text>
</svg>
